<?xml version="1.0" encoding="utf-8"?>
<svg id="Calque_1" xmlns="http://www.w3.org/2000/svg" viewBox="0 0 1000 404.683">
  <path class="st0" d="M0 148.431l17.277-27.981c15.085 9.976 31.632 15.085 45.258 15.085 8.031 0 11.68-2.432 11.68-7.056v-.488c0-5.109-7.299-7.299-21.169-11.192-26.036-6.813-46.72-15.573-46.72-42.096v-.488c0-27.984 22.386-43.557 52.804-43.557 19.223 0 39.176 5.597 54.262 15.331l-15.817 29.2c-13.627-7.544-28.469-12.165-38.933-12.165-7.056 0-10.707 2.675-10.707 6.325v.488c0 5.109 7.544 7.541 21.413 11.68 26.037 7.299 46.72 16.301 46.72 41.853v.485c0 28.957-21.656 44.042-53.776 44.042-22.143 0-44.042-6.325-62.292-19.466zM135.055 33.336h46.234v18.008c8.516-10.952 20.683-20.928 39.176-20.928 17.52 0 30.904 7.787 37.96 21.413 11.437-13.139 24.82-21.413 44.042-21.413 27.984 0 45.017 17.52 45.017 48.181v86.381h-46.233V93.439c0-14.357-7.056-21.901-18.007-21.901s-18.98 7.544-18.98 21.901v71.538h-46.233V93.439c0-14.357-7.057-21.901-18.007-21.901s-18.736 7.544-18.736 21.901v71.538h-46.234V33.336zM532.068 33.336h46.234v26.522c7.543-18.005 19.709-29.685 41.609-28.712v48.666h-3.893c-24.089 0-37.716 13.869-37.716 44.285v40.88h-46.234V33.336zM652.017 124.098V70.565h-15.573V33.336h15.573V0h46.232v33.336h30.659v37.229h-30.659v44.53c0 9.248 4.136 13.141 12.653 13.141 6.083 0 11.923-1.704 17.52-4.381v36.256c-8.272 4.624-19.224 7.544-32.12 7.544-27.741 0-44.285-12.166-44.285-43.557zM509.272 164.977H463.04v-16.059c-8.517 9.976-20.197 18.979-40.15 18.979-31.146 0-58.156-26.037-58.156-68.863v-.485c0-42.098 27.009-68.133 58.4-68.133 19.709 0 30.902 9.491 39.906 20.44v-17.52h46.232v131.641zm-72.026-35.77c14.844 0 26.768-12.411 26.768-29.93v-.485c0-17.277-11.924-29.685-26.768-29.685-15.085 0-27.009 12.408-27.009 29.685v.485c0 17.765 11.924 29.93 27.009 29.93z"/>
  <path d="M181.289 338.862h-46.234V207.221h46.234v131.641z" fill="#060606"/>
  <path d="M181.289 404.683h-46.234V358.45h46.234v46.233z" fill="#e3007d"/>
  <path class="st0" d="M207.083 207.308h46.232v18.008c8.517-10.951 20.684-20.928 39.177-20.928 17.52 0 30.902 7.787 37.96 21.413 11.436-13.139 24.82-21.413 44.044-21.413 27.982 0 45.016 17.52 45.016 48.181v86.381h-46.233v-71.538c0-14.357-7.057-21.9-18.007-21.9s-18.98 7.543-18.98 21.9v71.538h-46.233v-71.538c0-14.357-7.056-21.9-18.007-21.9s-18.737 7.543-18.737 21.9v71.538h-46.232V207.308zM443.371 207.308h46.232v17.52c9.004-10.949 20.197-20.44 39.906-20.44 31.39 0 58.398 26.037 58.398 68.133v.488c0 42.826-27.008 68.863-58.154 68.863-19.953 0-31.633-9.005-40.15-18.981v54.992h-46.232V207.308zm99.036 65.943v-.488c0-17.275-11.924-29.685-27.009-29.685-14.844 0-26.768 12.411-26.768 29.685v.488c0 17.52 11.924 29.93 26.768 29.93 15.085.001 27.009-12.167 27.009-29.93zM766.086 273.739v-.488c0-37.229 28.957-68.619 70.567-68.619 27.008 0 45.016 11.68 56.208 29.444l-31.389 23.36c-6.325-8.76-13.384-13.871-24.576-13.871-14.843 0-25.794 13.14-25.794 29.199v.488c0 17.032 10.709 29.93 26.282 29.93 10.949 0 18.005-5.112 25.306-13.627l30.901 22.386c-12.165 18.005-29.685 30.173-58.642 30.173-39.663.001-68.863-31.146-68.863-68.375zM923.107 298.07v-53.532h-15.573v-37.23h15.573v-33.336h46.234v33.336H1000v37.23h-30.659v44.529c0 9.248 4.136 13.141 12.651 13.141 6.085 0 11.925-1.704 17.52-4.381v36.258c-8.272 4.621-19.221 7.541-32.117 7.541-27.741.001-44.288-12.165-44.288-43.556zM749.266 338.694h-46.232v-16.059c-8.517 9.976-20.197 18.979-40.15 18.979-31.146 0-58.156-26.037-58.156-68.863v-.485c0-42.098 27.009-68.133 58.4-68.133 19.709 0 30.902 9.491 39.906 20.44v-17.52h46.232v131.641zm-72.027-35.771c14.844 0 26.768-12.411 26.768-29.93v-.485c0-17.277-11.924-29.685-26.768-29.685-15.085 0-27.009 12.408-27.009 29.685v.485c0 17.765 11.924 29.93 27.009 29.93z"/>
</svg>
